

<svg viewBox="0 0 465 259" fill="#fff" xmlns="http://www.w3.org/2000/svg">


<path class="firstD" fill-rule="evenodd" clip-rule="evenodd" d="M231.691 48.4C226.791 48.4 224.341 44.7833 224.341 37.55C224.341 35.2166 225.391 33.5833 227.491 32.65C229.591 31.4833 236.358 29.2666 247.791 26C289.558 13.4 327.825 7.09998 362.591 7.09998C390.125 7.09998 412.758 13.6333 430.491 26.7C448.225 39.7667 457.091 57.15 457.091 78.85C457.091 92.15 453.241 105.567 445.541 119.1C438.075 132.633 427.691 144.883 414.391 155.85C401.325 166.817 384.758 175.683 364.691 182.45C344.858 189.45 323.625 192.95 300.991 192.95C288.469 192.95 279.447 192.367 273.925 191.2C273.474 191.105 273.046 191.005 272.641 190.902C272.593 190.89 272.546 190.878 272.498 190.865C269.094 189.977 267.391 188.806 267.391 187.35C267.391 185.25 269.141 184.2 272.641 184.2H278.241C279.875 184.433 281.975 184.55 284.541 184.55C307.641 184.55 329.575 180.933 350.341 173.7C371.108 166.467 388.141 157.367 401.441 146.4C414.975 135.2 425.591 123.3 433.291 110.7C441.225 97.8666 445.191 85.7333 445.191 74.3C445.191 56.3333 438.075 42.1 423.841 31.6C409.608 20.8666 391.291 15.5 368.891 15.5H366.441C353.299 15.7878 337.967 17.811 320.446 21.5695C318.424 22.0034 316.372 22.4605 314.291 22.9406C311.381 23.612 308.415 24.3286 305.391 25.0904C283.747 30.5435 259.18 38.3133 231.691 48.4ZM299.294 33.9128C279.929 39.1209 258.208 46.1265 234.103 54.9715L232.935 55.4H231.691C227.25 55.4 223.086 53.6026 220.383 49.6134C218.011 46.1109 217.341 41.7378 217.341 37.55C217.341 35.3147 217.855 32.9454 219.24 30.7897C220.569 28.7234 222.41 27.3025 224.372 26.3795C226.122 25.4612 228.853 24.4788 231.962 23.4603C235.457 22.3153 240.087 20.9213 245.819 19.2835C288.063 6.54348 327.005 0.0999756 362.591 0.0999756C391.24 0.0999756 415.435 6.91068 434.644 21.0646C454.136 35.4271 464.091 54.8864 464.091 78.85C464.091 93.5432 459.83 108.128 451.648 122.522C443.715 136.888 432.746 149.783 418.868 161.231C405.007 172.859 387.644 182.092 366.975 189.067C346.352 196.34 324.34 199.95 300.991 199.95C289.701 199.95 280.83 199.486 274.64 198.455C271.615 197.951 268.699 197.23 266.361 196.061C265.374 195.568 263.969 194.714 262.769 193.405C263.051 194.745 263.575 196.525 264.465 198.813C265.298 200.954 265.958 202.739 266.419 204.124C266.648 204.811 266.856 205.481 267.014 206.09C267.121 206.504 267.391 207.55 267.391 208.7V213.026L261.344 216.05H259.691C252.5 216.05 247.502 211.521 244.433 205.729C241.278 200.006 240.091 192.441 240.091 183.85C240.091 153.081 257.129 108.825 289.444 51.8783C289.533 51.5562 289.622 51.2864 289.692 51.0837C289.955 50.3213 290.293 49.5448 290.646 48.8029C291.357 47.3112 292.348 45.5073 293.558 43.4508L293.588 43.4001L293.618 43.3498C295.888 39.6358 297.778 36.4924 299.294 33.9128ZM296.091 54.35C263.425 111.75 247.091 154.917 247.091 183.85C247.091 192.017 248.258 198.2 250.591 202.4C250.84 202.872 251.096 203.319 251.361 203.741C251.389 203.786 251.417 203.831 251.446 203.876C253.076 206.428 255.005 208.036 257.232 208.7C258.015 208.933 258.835 209.05 259.691 209.05L260.391 208.7C260.391 208.326 260.158 207.452 259.691 206.077C259.285 204.881 258.701 203.305 257.941 201.35C257.833 201.072 257.729 200.798 257.628 200.528C256.203 196.706 255.491 193.597 255.491 191.2C255.491 168.567 273.341 126.333 309.041 64.5C315.575 54.4666 321.875 44.2 327.941 33.7C327.941 32.3 326.308 31.0167 323.041 29.85C322.066 29.4321 321.122 29.0765 320.209 28.7833C318.064 28.0944 316.092 27.75 314.291 27.75C312.795 27.75 311.107 28.9493 309.227 31.348C308.175 32.6899 307.063 34.4073 305.891 36.5C304.258 39.3 302.158 42.8 299.591 47C297.258 50.9666 296.091 53.4166 296.091 54.35ZM331.432 26.5044C333.033 27.8768 334.941 30.2551 334.941 33.7V35.5768L334.002 37.2019C327.906 47.7532 321.575 58.0732 315.01 68.1619C297.281 98.878 284.08 124.564 275.326 145.275C269.344 159.43 265.587 170.926 263.779 179.929C264.186 179.586 264.627 179.27 265.102 178.985C267.59 177.492 270.42 177.2 272.641 177.2H278.739L279.231 177.27C280.409 177.439 282.145 177.55 284.541 177.55C306.897 177.55 328.049 174.052 348.039 167.09C368.225 160.058 384.471 151.319 396.981 141.005C410.027 130.208 420.091 118.877 427.318 107.05L427.328 107.035L427.337 107.019C434.8 94.9468 438.191 84.0797 438.191 74.3C438.191 58.5146 432.097 46.389 419.686 37.2331L419.656 37.2112L419.627 37.189C406.889 27.5839 390.166 22.5 368.891 22.5H366.519C356.29 22.7292 344.599 24.057 331.432 26.5044ZM272.487 183.466C272.488 183.466 272.504 183.475 272.533 183.493C272.5 183.475 272.486 183.466 272.487 183.466Z" fill="#FFFEFE"/>
<path class="secD" fill-rule="evenodd" clip-rule="evenodd" d="M233.309 210.6C238.209 210.6 240.659 214.217 240.659 221.45C240.659 223.783 239.609 225.417 237.509 226.35C235.409 227.517 228.642 229.733 217.209 233C175.442 245.6 137.175 251.9 102.409 251.9C74.8755 251.9 52.2421 245.367 34.5088 232.3C16.7755 219.233 7.9088 201.85 7.9088 180.15C7.9088 166.85 11.7588 153.433 19.4588 139.9C26.9255 126.367 37.3088 114.117 50.6088 103.15C63.6755 92.1833 80.2421 83.3167 100.309 76.55C120.142 69.55 141.375 66.05 164.009 66.05C176.531 66.05 185.553 66.6333 191.075 67.8C191.526 67.8954 191.954 67.9947 192.359 68.0978C192.407 68.11 192.454 68.1223 192.502 68.1346C195.906 69.0227 197.609 70.1945 197.609 71.65C197.609 73.75 195.859 74.8 192.359 74.8H186.759C185.125 74.5667 183.025 74.45 180.459 74.45C157.359 74.45 135.425 78.0667 114.659 85.3C93.8922 92.5334 76.8588 101.633 63.5588 112.6C50.0255 123.8 39.4088 135.7 31.7088 148.3C23.7755 161.133 19.8088 173.267 19.8088 184.7C19.8088 202.667 26.9255 216.9 41.1588 227.4C55.3922 238.133 73.7088 243.5 96.1088 243.5H98.5588C111.701 243.212 127.033 241.189 144.554 237.43C146.576 236.997 148.628 236.54 150.709 236.059C153.619 235.388 156.585 234.671 159.609 233.91C181.253 228.457 205.82 220.687 233.309 210.6ZM165.706 225.087C185.071 219.879 206.792 212.873 230.897 204.028L232.065 203.6H233.309C237.75 203.6 241.914 205.397 244.617 209.387C246.989 212.889 247.659 217.262 247.659 221.45C247.659 223.685 247.145 226.055 245.76 228.21C244.431 230.277 242.59 231.697 240.628 232.62C238.878 233.539 236.147 234.521 233.038 235.54C229.543 236.685 224.913 238.079 219.181 239.717C176.937 252.457 137.995 258.9 102.409 258.9C73.7595 258.9 49.5653 252.089 30.3564 237.935C10.8645 223.573 0.908798 204.114 0.908798 180.15C0.908798 165.457 5.1698 150.872 13.3521 136.478C21.2852 122.112 32.2536 109.217 46.1321 97.7686C59.9928 86.1414 77.3561 76.9078 98.0248 69.933C118.648 62.6602 140.66 59.05 164.009 59.05C175.299 59.05 184.17 59.5137 190.36 60.5453C193.385 61.0495 196.301 61.7701 198.639 62.939C199.626 63.4322 201.031 64.2856 202.231 65.5945C201.949 64.2553 201.425 62.475 200.535 60.1871C199.702 58.0462 199.042 56.2609 198.581 54.8761C198.352 54.1891 198.144 53.5193 197.986 52.9099C197.879 52.4965 197.609 51.4501 197.609 50.3V45.9738L203.656 42.95H205.309C212.5 42.95 217.498 47.4795 220.567 53.2709C223.722 58.9942 224.909 66.5587 224.909 75.15C224.909 105.919 207.871 150.175 175.556 207.122C175.467 207.444 175.378 207.714 175.308 207.916C175.045 208.679 174.707 209.455 174.354 210.197C173.643 211.689 172.652 213.493 171.442 215.549L171.412 215.6L171.382 215.65C169.112 219.364 167.222 222.508 165.706 225.087ZM168.909 204.65C201.575 147.25 217.909 104.083 217.909 75.15C217.909 66.9834 216.742 60.8 214.409 56.6C214.16 56.1278 213.904 55.6808 213.639 55.2589C213.611 55.2137 213.583 55.1687 213.554 55.1241C211.924 52.5718 209.995 50.9638 207.768 50.3C206.985 50.0667 206.165 49.95 205.309 49.95L204.609 50.3C204.609 50.6742 204.842 51.5483 205.309 52.9225C205.715 54.1192 206.299 55.695 207.059 57.65C207.167 57.9277 207.271 58.2018 207.372 58.4723C208.797 62.2938 209.509 65.403 209.509 67.8C209.509 90.4333 191.659 132.667 155.959 194.5C149.425 204.533 143.125 214.8 137.059 225.3C137.059 226.7 138.692 227.983 141.959 229.15C142.934 229.568 143.878 229.924 144.791 230.217C146.936 230.906 148.908 231.25 150.709 231.25C152.205 231.25 153.893 230.051 155.773 227.652C156.825 226.31 157.937 224.593 159.109 222.5C160.742 219.7 162.842 216.2 165.409 212C167.742 208.033 168.909 205.583 168.909 204.65ZM133.568 232.496C131.967 231.123 130.059 228.745 130.059 225.3V223.423L130.998 221.798C137.094 211.247 143.425 200.927 149.99 190.838C167.719 160.122 180.92 134.436 189.674 113.725C195.656 99.57 199.413 88.0738 201.221 79.0708C200.814 79.4139 200.373 79.7298 199.898 80.015C197.41 81.5075 194.58 81.8 192.359 81.8H186.261L185.769 81.7297C184.591 81.5614 182.855 81.45 180.459 81.45C158.103 81.45 136.951 84.9478 116.961 91.9105C96.7752 98.9416 80.5292 107.681 68.0187 117.995C54.9731 128.792 44.9094 140.123 37.6818 151.95L37.6724 151.965L37.663 151.981C30.2 164.053 26.8088 174.92 26.8088 184.7C26.8088 200.485 32.9029 212.611 45.3144 221.767L45.344 221.789L45.3735 221.811C58.1106 231.416 74.8341 236.5 96.1088 236.5H98.4813C108.71 236.271 120.401 234.943 133.568 232.496ZM192.513 75.5341C192.512 75.5342 192.496 75.5255 192.467 75.5073C192.5 75.5249 192.514 75.5339 192.513 75.5341Z" fill="#FFFEFE"/>


</svg>
